<svg width="154" height="35" viewBox="0 0 154 35" fill="none"
    xmlns="http://www.w3.org/2000/svg">
    <path d="M0 34.5044V0.495605H11.5698V5.62256H8.20312V29.3774H10.9717V34.5044H0Z" fill="#1B2845"/>
    <path d="M15.7969 25.7026V22.3335H17.3594V13.5249H15.7969V10.1558H24.5859V13.5249H22.4375V22.3823H25.6211L26.0117 18.7397H29.2344V25.7026H15.7969Z" fill="#1B2845"/>
    <path d="M38.1113 25.9858C36.5033 25.9858 35.1133 25.6636 33.9414 25.019C32.776 24.368 31.8776 23.4403 31.2461 22.2358C30.6146 21.0314 30.2988 19.6024 30.2988 17.9487C30.2988 16.2821 30.6146 14.8465 31.2461 13.6421C31.8776 12.4312 32.776 11.5002 33.9414 10.8491C35.1133 10.1981 36.5033 9.87256 38.1113 9.87256C39.7259 9.87256 41.1159 10.1981 42.2812 10.8491C43.4466 11.5002 44.3451 12.4312 44.9766 13.6421C45.6081 14.8465 45.9238 16.2821 45.9238 17.9487C45.9238 19.6024 45.6081 21.0314 44.9766 22.2358C44.3451 23.4403 43.4466 24.368 42.2812 25.019C41.1159 25.6636 39.7259 25.9858 38.1113 25.9858ZM38.1113 22.6167C38.8405 22.6167 39.4004 22.2196 39.791 21.4253C40.1816 20.631 40.377 19.4624 40.377 17.9194C40.377 16.3765 40.1816 15.2078 39.791 14.4136C39.4004 13.6193 38.8405 13.2222 38.1113 13.2222C37.3822 13.2222 36.8223 13.6193 36.4316 14.4136C36.041 15.2078 35.8457 16.3765 35.8457 17.9194C35.8457 19.4624 36.041 20.631 36.4316 21.4253C36.8223 22.2196 37.3822 22.6167 38.1113 22.6167Z" fill="#1B2845"/>
    <path d="M56.4707 25.9858C54.5762 25.9858 52.9388 25.644 51.5586 24.9604C50.1849 24.2769 49.1237 23.3068 48.375 22.0503C47.6263 20.7938 47.252 19.3062 47.252 17.5874C47.252 16.0444 47.5514 14.6968 48.1504 13.5444C48.7559 12.3856 49.599 11.4839 50.6797 10.8394C51.7669 10.1948 53.0332 9.87256 54.4785 9.87256C55.5658 9.87256 56.4837 10.0256 57.2324 10.3315C57.9876 10.6375 58.6029 11.09 59.0781 11.689L59.5762 10.1558H62.2617V15.8101H58.6484C58.5247 14.9377 58.2578 14.3062 57.8477 13.9155C57.4375 13.5184 56.8516 13.3198 56.0898 13.3198C55.4844 13.3198 54.931 13.4728 54.4297 13.7788C53.9284 14.0783 53.528 14.5438 53.2285 15.1753C52.929 15.8003 52.7793 16.6011 52.7793 17.5776C52.7793 19.0295 53.1243 20.1395 53.8145 20.9077C54.5111 21.6759 55.5007 22.0601 56.7832 22.0601C57.3171 22.0601 57.7891 21.9917 58.1992 21.855V20.2729H56.3438V17.3433H62.5938V24.6089C62.099 24.8758 61.513 25.1134 60.8359 25.3218C60.1589 25.5301 59.446 25.6929 58.6973 25.8101C57.9486 25.9272 57.2064 25.9858 56.4707 25.9858Z" fill="#1B2845"/>
    <path d="M72.1934 25.9858C70.5853 25.9858 69.1953 25.6636 68.0234 25.019C66.8581 24.368 65.9596 23.4403 65.3281 22.2358C64.6966 21.0314 64.3809 19.6024 64.3809 17.9487C64.3809 16.2821 64.6966 14.8465 65.3281 13.6421C65.9596 12.4312 66.8581 11.5002 68.0234 10.8491C69.1953 10.1981 70.5853 9.87256 72.1934 9.87256C73.8079 9.87256 75.1979 10.1981 76.3633 10.8491C77.5286 11.5002 78.4271 12.4312 79.0586 13.6421C79.6901 14.8465 80.0059 16.2821 80.0059 17.9487C80.0059 19.6024 79.6901 21.0314 79.0586 22.2358C78.4271 23.4403 77.5286 24.368 76.3633 25.019C75.1979 25.6636 73.8079 25.9858 72.1934 25.9858ZM72.1934 22.6167C72.9225 22.6167 73.4824 22.2196 73.873 21.4253C74.2637 20.631 74.459 19.4624 74.459 17.9194C74.459 16.3765 74.2637 15.2078 73.873 14.4136C73.4824 13.6193 72.9225 13.2222 72.1934 13.2222C71.4642 13.2222 70.9043 13.6193 70.5137 14.4136C70.123 15.2078 69.9277 16.3765 69.9277 17.9194C69.9277 19.4624 70.123 20.631 70.5137 21.4253C70.9043 22.2196 71.4642 22.6167 72.1934 22.6167Z" fill="#1B2845"/>
    <path d="M83.541 25.7026V22.3335H86.373V13.3296H84.625L84.2344 16.6206H81.0117V10.1558H96.8125V16.6206H93.5898L93.1992 13.3296H91.4512V22.3335H94.2832V25.7026H83.541Z" fill="#1B2845"/>
    <path d="M97.7891 25.7026V22.3335H99.4492V13.5249H97.7891V10.1558H106.188V13.5249H104.527V22.3335H106.188V25.7026H97.7891Z" fill="#1B2845"/>
    <path d="M107.34 25.7026V22.3335H108.902V13.5249H107.34V10.1558H115.729C117.851 10.1558 119.452 10.5692 120.533 11.396C121.614 12.2163 122.154 13.4468 122.154 15.0874C122.154 16.6759 121.617 17.8804 120.543 18.7007C119.469 19.5145 117.896 19.9214 115.826 19.9214H113.863V22.3335H116.695V25.7026H107.34ZM115.162 13.4272H113.863V16.9429H115.064C115.729 16.9429 116.227 16.8029 116.559 16.5229C116.891 16.243 117.057 15.797 117.057 15.1851C117.057 14.5666 116.894 14.1206 116.568 13.8472C116.249 13.5672 115.781 13.4272 115.162 13.4272Z" fill="#1B2845"/>
    <path d="M131.119 25.9858C129.511 25.9858 128.121 25.6636 126.949 25.019C125.784 24.368 124.885 23.4403 124.254 22.2358C123.622 21.0314 123.307 19.6024 123.307 17.9487C123.307 16.2821 123.622 14.8465 124.254 13.6421C124.885 12.4312 125.784 11.5002 126.949 10.8491C128.121 10.1981 129.511 9.87256 131.119 9.87256C132.734 9.87256 134.124 10.1981 135.289 10.8491C136.454 11.5002 137.353 12.4312 137.984 13.6421C138.616 14.8465 138.932 16.2821 138.932 17.9487C138.932 19.6024 138.616 21.0314 137.984 22.2358C137.353 23.4403 136.454 24.368 135.289 25.019C134.124 25.6636 132.734 25.9858 131.119 25.9858ZM131.119 22.6167C131.848 22.6167 132.408 22.2196 132.799 21.4253C133.189 20.631 133.385 19.4624 133.385 17.9194C133.385 16.3765 133.189 15.2078 132.799 14.4136C132.408 13.6193 131.848 13.2222 131.119 13.2222C130.39 13.2222 129.83 13.6193 129.439 14.4136C129.049 15.2078 128.854 16.3765 128.854 17.9194C128.854 19.4624 129.049 20.631 129.439 21.4253C129.83 22.2196 130.39 22.6167 131.119 22.6167Z" fill="#1B2845"/>
    <path d="M153.344 34.5044V0.495605H141.774V5.62256H145.141V29.3774H142.372V34.5044H153.344Z" fill="#1B2845"/>
</svg>
